Coordinates
version=1
nRows=4
nColumns=63
inDegrees=yes

Units are S.I. units (second, meters, Newtons, ...)
If the header above contains a line with 'inDegrees', this indicates whether rotational values are in degrees (yes) or radians (no).

endheader
time	pelvis_tilt	pelvis_list	pelvis_rotation	pelvis_tx	pelvis_ty	pelvis_tz	hip_flexion_r	hip_adduction_r	hip_rotation_r	knee_angle_r	knee_angle_r_beta	ankle_angle_r	subtalar_angle_r	mtp_angle_r	hip_flexion_l	hip_adduction_l	hip_rotation_l	knee_angle_l	knee_angle_l_beta	ankle_angle_l	subtalar_angle_l	mtp_angle_l	L5_S1_Flex_Ext	L5_S1_Lat_Bending	L5_S1_axial_rotation	L4_L5_Flex_Ext	L4_L5_Lat_Bending	L4_L5_axial_rotation	L3_L4_Flex_Ext	L3_L4_Lat_Bending	L3_L4_axial_rotation	L2_L3_Flex_Ext	L2_L3_Lat_Bending	L2_L3_axial_rotation	L1_L2_Flex_Ext	L1_L2_Lat_Bending	L1_L2_axial_rotation	L1_T12_Flex_Ext	L1_T12_Lat_Bending	L1_T12_axial_rotation	Abs_r3	Abs_r2	Abs_r1	Abs_t1	Abs_t2	neck_flexion	neck_bending	neck_rotation	arm_flex_r	arm_add_r	arm_rot_r	elbow_flex_r	pro_sup_r	wrist_flex_r	wrist_dev_r	arm_flex_l	arm_add_l	arm_rot_l	elbow_flex_l	pro_sup_l	wrist_flex_l	wrist_dev_l
      0.00000000	     -0.89934980	     -3.99864389	     95.00988854	      0.12834852	      0.97386228	      0.38834323	     -2.49352622	      4.40506547	      4.69827001	      0.89608488	      0.01563963	     28.41914242	    -16.74555856	      0.00000000	      0.13202670	     -4.10726260	     20.64862848	      1.04214318	      0.01818883	     34.45373057	    -13.84490888	      0.00000000	      0.18709089	      0.21735985	     -0.56581137	      0.34744650	      0.28908859	     -0.60117458	      0.30737163	      0.52848873	     -0.60117458	      0.21382618	      0.52848873	     -0.49508495	      0.17373260	      0.44324020	     -0.45972174	      0.10690374	      0.33669040	     -0.42435853	      1.33637153	      2.45881804	     -3.14687309	      0.00000000	      0.00000000	     27.71328947	     -3.20004917	     -9.23941871	     13.40543097	     -0.70467557	     89.37451192	     25.01106341	     20.16890962	     -1.34144219	      0.57292785	     15.59189429	      1.93358498	     94.10941260	     21.91409682	     49.40790033	     -5.61098421	      0.22418237
      0.01666667	     -0.38189425	     -3.90918532	     94.55540839	      0.12861025	      0.97477738	      0.38808659	     -2.21218226	      4.90503961	      5.97861253	      0.97872697	      0.01708201	     29.39161731	    -16.20158935	      0.00000000	      0.16448725	     -4.60658677	     19.91129383	      1.19772372	      0.02090422	     34.81899680	    -14.27425051	      0.00000000	      0.18004689	      0.29530453	     -0.39952207	      0.33436509	      0.39275502	     -0.42449220	      0.29579904	      0.71800343	     -0.42449220	      0.20577560	      0.71800343	     -0.34958182	      0.16719155	      0.60218499	     -0.32461169	      0.10287880	      0.45742671	     -0.29964156	      1.28605696	      3.34054388	     -2.22202192	      0.00000000	      0.00000000	     27.64201513	     -3.70382109	     -9.17391545	     13.21640551	     -1.03542369	     90.03751899	     24.78985928	     20.59592631	     -1.19660822	      0.86785856	     15.09969561	      2.22765173	     91.25816334	     21.95181152	     46.07478310	     -5.20558918	      1.16182711
      0.03333333	     -0.19627983	     -3.76343813	     94.67461866	      0.12838892	      0.97549335	      0.38774564	     -2.14447215	      5.11766702	      6.40198693	      1.06250870	      0.01854428	     30.07736645	    -16.13380982	      0.00000000	      0.15338139	     -4.78171732	     19.94243291	      1.33234038	      0.02325373	     35.06707774	    -14.30124917	      0.00000000	      0.16602647	      0.31997776	     -0.37437769	      0.30832775	      0.42557043	     -0.39777629	      0.27276488	      0.77799394	     -0.39777629	      0.18975165	      0.77799394	     -0.32758048	      0.15417218	      0.65249866	     -0.30418187	      0.09486752	      0.49564556	     -0.28078327	      1.18591045	      3.61965247	     -2.08217639	      0.00000000	      0.00000000	     27.57534907	     -3.66910447	     -9.18552359	     12.99850997	     -1.07874771	     90.22463796	     24.56679584	     20.69154248	     -1.25358566	      1.01519694	     14.99869453	      2.39792518	     90.86677581	     21.75154325	     45.55851532	     -5.21979883	      1.28003023
      0.05000000	      0.23091364	     -3.70187481	     94.18892341	      0.12838791	      0.97598466	      0.38759342	     -1.94678502	      5.53760010	      6.94956010	      1.38204900	      0.02412131	     30.14089352	    -16.13067918	      0.00000000	      0.08572979	     -5.17800133	     19.63475421	      1.37327804	      0.02396822	     35.34181100	    -14.34301934	      0.00000000	      0.16309470	      0.38605589	     -0.32805043	      0.30288317	      0.51345434	     -0.34855358	      0.26794829	      0.93865630	     -0.34855358	      0.18640093	      0.93865630	     -0.28704413	      0.15144974	      0.78724518	     -0.26654097	      0.09319231	      0.59800058	     -0.24603782	      1.16496915	      4.36714148	     -1.82451808	      0.00000000	      0.00000000	     27.53048236	     -3.78607537	     -8.53631264	     13.19209705	     -1.29562955	     91.54395876	     24.45884176	     21.36054246	     -1.12775517	      0.91206271	     15.34023221	      2.94838636	     95.74254558	     21.30874947	     30.16919778	     -4.26678332	      0.70124516
